<svg xmlns="http://www.w3.org/2000/svg" width="71" height="71" fill="none"><circle cx="35.998" cy="35.752" r="34.5" fill="#fff" stroke="#DCDCDC"/><path d="M45.521 20.315a.547.547 0 0 0-.275-.342.548.548 0 0 0-.741.23c0 .015-2.774 5.396-11.289 6.334-1.11.118-2.196.408-3.218.859a8.942 8.942 0 0 0-4.293 3.932 9.241 9.241 0 0 0-1.055 5.384 9.05 9.05 0 0 0 1.325 3.818c-1.513 1.086-6.31 4.84-6.743 8.869a.548.548 0 0 0 1.089.115c.396-3.597 4.897-7.085 6.3-8.095 1.686 2.07 4.208 3.237 6.916 3.427a11.692 11.692 0 0 0 5.327-.907 12.219 12.219 0 0 0 4.694-3.488c3.246-3.932 4.791-10.541 1.963-20.136ZM26.936 39.988a7.984 7.984 0 0 1-1.186-3.394 8.143 8.143 0 0 1 .908-4.748 7.865 7.865 0 0 1 3.781-3.458 9.742 9.742 0 0 1 2.898-.76c5.62-.604 8.926-3.106 10.632-4.92a23.194 23.194 0 0 1-5.051 8.883l-.333-3.351a.548.548 0 1 0-1.089.106l.427 4.307c-2.544 2.58-6.08 5.173-10.987 7.335Zm15.775-.239v.003a11.124 11.124 0 0 1-4.271 3.189 10.588 10.588 0 0 1-4.84.81 8.654 8.654 0 0 1-6.004-2.864 41.228 41.228 0 0 0 5.22-2.774l4.807.907a.547.547 0 0 0 .197-1.076l-3.694-.7a31.926 31.926 0 0 0 4.813-4.059c3.818-3.974 5.442-7.907 6.12-10.326 1.869 7.973.438 13.52-2.348 16.89Z" fill="#C4C4C4"/></svg>