<svg xmlns="http://www.w3.org/2000/svg" width="71" height="71" fill="none"><circle cx="35.749" cy="35.252" r="34.5" fill="#fff" stroke="#E9E9E9"/><path d="M51.694 33.997a.614.614 0 0 0-.326-.6l-5.753-3.016 5.65-1.746a.614.614 0 0 0 .103-1.13L39.93 21.507a.614.614 0 0 0-.467-.043l-18.78 5.804a.615.615 0 0 0-.103 1.13l3.95 2.071c.623.327 1.26.621 1.906.882l-5.755 1.81a.614.614 0 0 0-.101 1.13l5.753 3.016-5.65 1.746a.614.614 0 0 0-.103 1.13l11.44 5.997a.614.614 0 0 0 .466.043l7.004-2.165a.614.614 0 0 0-.363-1.173l-6.762 2.09-9.896-5.188 5.407-1.671 4.143 2.172a.613.613 0 0 0 .467.042l8.63-2.667.006-.002 2.83-.874 5.528 2.898-5.653 1.747a.614.614 0 0 0 .363 1.173l7.075-2.186a.614.614 0 0 0 .104-1.13l-5.753-3.017 5.65-1.746a.614.614 0 0 0 .43-.53Zm-6.233-2.31-4.845 4.845-6.125 1.894 6.667-6.668 2.793-.863 1.51.792Zm-15.888-.603a7.087 7.087 0 0 0 3.675-1.97 7.333 7.333 0 0 0 2.973 2.456 19.645 19.645 0 0 1-6.648-.486Zm2.753 1.703-4.117 4.117-2.57-1.346 3.359-3.359c1.086.284 2.197.48 3.328.588Zm1.644.093c.126.002.25.004.376.004 1.467 0 2.924-.153 4.36-.459l-4.736 4.736a.617.617 0 0 0-.118.166l-1.664 1.664-2.84-1.489 4.622-4.622Zm-11.502-4.877 17.115-5.29 9.896 5.188-5.65 1.746h-.001L40.2 30.77c-.45.139-.902.26-1.356.367l-1.288-.377a6.14 6.14 0 0 1-3.685-2.963.615.615 0 0 0-1.022-.083 5.895 5.895 0 0 1-4.673 2.279h-1.808c-.428-.188-.851-.39-1.269-.61l-2.631-1.379Zm4.528 4.46L24.5 34.96l-2.041-1.07 4.537-1.426ZM43.83 35.54l-.003.001-.696.215 3.47-3.47 2.878 1.508-5.65 1.746Z" fill="#C4C4C4"/></svg>