<svg xmlns="http://www.w3.org/2000/svg" width="71" height="71" fill="none"><circle cx="35.749" cy="35.504" r="34.5" fill="#fff" stroke="#E9E9E9"/><g clip-path="url(#a)" fill="#C4C4C4"><path d="M54.007 45.764a.742.742 0 1 0 0 1.485.742.742 0 0 0 0-1.485ZM35.75 13.256a.742.742 0 1 0 0 1.485.742.742 0 0 0 0-1.485ZM17.492 45.764a.742.742 0 1 0 0 1.485.742.742 0 0 0 0-1.485ZM51.45 44.39l-3.084-1.896V28a.742.742 0 0 0-.401-.659l-11.474-5.927v-4.446a.742.742 0 1 0-1.484 0v4.446L23.534 27.34a.742.742 0 0 0-.402.66v14.494L20.05 44.39a.742.742 0 0 0 .778 1.265l3.05-1.875 11.472 7.36a.741.741 0 0 0 .802-.001l11.47-7.36 3.051 1.876a.738.738 0 0 0 1.02-.244.742.742 0 0 0-.243-1.02Zm-16.443 4.766-9.726-6.24 7.038-4.326a.742.742 0 0 0-.778-1.264l-6.924 4.256V29.42l10.39 6.225v13.51Zm.742-14.797L25.3 28.1l9.708-5.015v7.688a.742.742 0 0 0 1.485 0v-7.688l9.708 5.015-10.45 6.26Zm11.133 7.223-6.925-4.256a.742.742 0 0 0-.777 1.264l7.038 4.326-9.727 6.24v-13.51l10.391-6.226v12.162Z"/></g><defs><clipPath id="a"><path fill="#fff" transform="translate(16.75 13.256)" d="M0 0h38v38H0z"/></clipPath></defs></svg>